<svg xmlns="http://www.w3.org/2000/svg" width="1024" height="1024" fill="none" viewBox="0 0 1024 1024"><g clip-path="url(#clip0_203_42)"><rect width="1024" height="1024" fill="#000"/><path fill="#9AAAB4" d="M285.9 619.673C289.007 620.229 292.001 618.143 292.557 615.035C293.113 611.928 291.027 608.934 287.92 608.378L220.138 596.259C217.031 595.703 214.036 597.789 213.48 600.896C212.925 604.003 215.01 606.998 218.118 607.553L285.9 619.673V619.673ZM275.8 676.16C278.908 676.716 281.902 674.63 282.458 671.523C283.014 668.415 280.928 665.421 277.821 664.865L210.032 652.736C206.925 652.18 203.93 654.266 203.374 657.373C202.819 660.481 204.905 663.475 208.012 664.031L275.8 676.16V676.16Z"/><path fill="#989898" d="M451.439 659.199C428.058 675.485 402.642 675.288 386.334 672.647C382.066 681.9 372.028 687.535 361.527 685.661L352.748 684.091C347.631 690.117 339.606 693.393 331.265 691.909L291.728 684.842C290.609 691.075 284.648 695.227 278.413 694.116C272.174 693 268.016 687.03 269.13 680.8L273.168 658.226L273.167 658.205L279.233 624.317L283.273 601.728C284.389 595.489 290.35 591.337 296.588 592.453C302.827 593.569 306.979 599.529 305.863 605.768L345.403 612.84C353.742 614.332 360.129 620.198 362.837 627.619L371.631 629.192C382.159 631.075 389.639 639.885 390.395 650.086C402.547 651.991 421.39 652.159 438.321 640.366L451.439 659.199Z"/><path fill="#C1694F" d="M1532.67 730.699C1547.18 698.153 1510.62 640.172 1456.3 563.333C1401.99 486.494 1116.97 188.137 878.376 160.74C799.98 151.753 776.552 236.081 758.183 227.237C725.614 211.558 674.415 173.577 598.629 145.502C521.805 117.081 478.09 152.887 441.147 229.623C404.204 306.359 338.45 489.439 357.779 558.619C382.125 645.794 518.679 711.807 587.88 643.315C608.374 657.91 621.661 666.477 630.831 705.344C633.142 877.206 558.093 1099.76 589.099 1114.69C620.496 1129.8 738.248 1015.62 790 940.127L1109.09 1037.63C1076.32 1117.96 1006.25 1315.51 1045.07 1334.2C1078.16 1350.13 1224.55 1231.38 1372.01 1017.33C1406.88 971.144 1445.34 909.357 1487.75 828.166C1485.93 833.875 1483.66 839.836 1480.55 846.286L1359.38 1097.98C1351 1115.38 1358.79 1136.45 1376.8 1145.12C1394.81 1153.79 1416.14 1146.74 1424.52 1129.34L1545.69 877.645C1573.06 820.793 1567.54 769.848 1532.67 730.699V730.699Z"/><path fill="#662113" d="M383.148 381.095C383.148 381.095 423.692 136.466 523.474 96.5326C623.256 56.5989 775.136 217.69 775.136 217.69C775.136 217.69 814.062 121.253 881.263 129.578C948.464 137.903 1194.09 214.608 1388.46 484.17C1264.66 458.167 1209.45 497.195 1164 622.505C1118.56 747.815 947.573 993.396 784.82 958.136C622.067 922.876 518.924 845.628 587.879 643.316C656.834 441.005 748.604 395.548 697.798 304.586C505.859 176.954 383.148 381.095 383.148 381.095V381.095Z"/><path fill="#292F33" d="M586.041 454.396C604.029 463.055 625.392 455.989 633.757 438.613C642.122 421.237 634.322 400.131 616.334 391.472C598.347 382.812 576.984 389.878 568.619 407.254C560.253 424.63 568.054 445.736 586.041 454.396Z"/><path fill="#D99E82" d="M429.568 503.582C412.997 538.001 412.111 564.508 376.48 547.355C340.849 530.201 327.771 483.368 338.604 444.869C348.954 408.036 373.349 423.695 408.98 440.849C444.611 458.002 446.153 469.131 429.568 503.582V503.582Z"/><path fill="#99AAB5" d="M689.088 279.852C754.117 289.689 816.658 247.444 826.634 188.225C831.348 160.267 821.142 93.3855 799.482 90.1274C777.822 86.8693 804.01 213.801 678.484 192.046C635.233 184.555 645.703 273.304 689.088 279.852Z"/></g><defs><clipPath id="clip0_203_42"><rect width="1024" height="1024" fill="#fff"/></clipPath></defs></svg>