<svg width="128" height="128" viewBox="0 0 128 128" fill="none" xmlns="http://www.w3.org/2000/svg">
<g clip-path="url(#clip0_203_22)">
<rect width="128" height="128" fill="black"/>
<path d="M35.7375 77.4591C36.1259 77.5286 36.5002 77.2678 36.5696 76.8794C36.6391 76.491 36.3784 76.1167 35.99 76.0472L27.5172 74.5323C27.1288 74.4628 26.7545 74.7236 26.685 75.112C26.6156 75.5004 26.8763 75.8747 27.2647 75.9442L35.7375 77.4591V77.4591ZM34.4751 84.52C34.8635 84.5894 35.2378 84.3287 35.3072 83.9403C35.3767 83.5519 35.116 83.1776 34.7276 83.1081L26.254 81.592C25.8656 81.5225 25.4913 81.7833 25.4218 82.1717C25.3523 82.5601 25.6131 82.9344 26.0015 83.0039L34.4751 84.52V84.52Z" fill="#9AAAB4"/>
<path d="M56.43 82.3999C53.5073 84.4357 50.3303 84.411 48.2919 84.0809C47.7583 85.2374 46.5035 85.9419 45.1909 85.7077L44.0936 85.5114C43.4539 86.2646 42.4507 86.6741 41.4081 86.4886L36.466 85.6052C36.3262 86.3844 35.5811 86.9034 34.8017 86.7645C34.0218 86.625 33.502 85.8788 33.6413 85.1L34.146 82.2782L34.146 82.2757L34.9041 78.0397L35.4092 75.2159C35.5487 74.4361 36.2938 73.9171 37.0736 74.0566C37.8534 74.1961 38.3724 74.9412 38.2329 75.721L43.1754 76.605C44.2178 76.7915 45.0161 77.5247 45.3546 78.4523L46.454 78.649C47.77 78.8843 48.7049 79.9857 48.7994 81.2607C50.3184 81.4989 52.6738 81.5199 54.7902 80.0457L56.43 82.3999Z" fill="#989898"/>
<path d="M191.584 91.3374C193.397 87.2691 188.827 80.0215 182.038 70.4166C175.249 60.8117 139.621 23.5171 109.797 20.0925C99.9975 18.9692 97.0691 29.5101 94.7729 28.4047C90.7018 26.4447 84.3019 21.6972 74.8286 18.1877C65.2257 14.6351 59.7612 19.1109 55.1434 28.7029C50.5255 38.2948 42.3062 61.1798 44.7224 69.8274C47.7657 80.7243 64.835 88.9758 73.485 80.4144C76.0468 82.2387 77.7077 83.3096 78.8539 88.1679C79.1427 109.651 69.7616 137.47 73.6374 139.336C77.562 141.225 92.281 126.953 98.75 117.516L138.637 129.704C134.54 139.745 125.781 164.439 130.633 166.775C134.77 168.767 153.069 153.922 171.501 127.166C175.86 121.393 180.667 113.67 185.969 103.521C185.741 104.234 185.457 104.979 185.069 105.786L169.923 137.248C168.876 139.422 169.849 142.056 172.1 143.14C174.352 144.224 177.018 143.342 178.065 141.168L193.212 109.706C196.633 102.599 195.943 96.2309 191.584 91.3374V91.3374Z" fill="#C1694F"/>
<path d="M47.8934 47.6368C47.8934 47.6368 52.9615 17.0583 65.4342 12.0666C77.907 7.07486 96.892 27.2113 96.892 27.2113C96.892 27.2113 101.758 15.1566 110.158 16.1973C118.558 17.2379 149.261 26.8261 173.558 60.5212C158.083 57.2709 151.181 62.1494 145.5 77.8131C139.82 93.4768 118.447 124.174 98.1025 119.767C77.7583 115.36 64.8655 105.703 73.4849 80.4146C82.1042 55.1256 93.5755 49.4435 87.2247 38.0733C63.2323 22.1192 47.8934 47.6368 47.8934 47.6368V47.6368Z" fill="#662113"/>
<path d="M73.2551 56.7995C75.5035 57.8819 78.1739 56.9987 79.2195 54.8267C80.2652 52.6547 79.2902 50.0164 77.0417 48.934C74.7933 47.8515 72.1229 48.7348 71.0772 50.9067C70.0316 53.0787 71.0066 55.717 73.2551 56.7995Z" fill="#292F33"/>
<path d="M53.696 62.9477C51.6247 67.2501 51.5138 70.5636 47.06 68.4194C42.6062 66.2751 40.9714 60.421 42.3254 55.6086C43.6193 51.0045 46.6687 52.9619 51.1225 55.1061C55.5763 57.2503 55.7692 58.6414 53.696 62.9477V62.9477Z" fill="#D99E82"/>
<path d="M86.136 34.9815C94.2646 36.2111 102.082 30.9306 103.329 23.5282C103.919 20.0333 102.643 11.6732 99.9353 11.2659C97.2279 10.8587 100.501 26.7252 84.8106 24.0057C79.4042 23.0694 80.7129 34.163 86.136 34.9815Z" fill="#99AAB5"/>
</g>
<defs>
<clipPath id="clip0_203_22">
<rect width="128" height="128" fill="white"/>
</clipPath>
</defs>
</svg>
