<svg width="16" height="16" viewBox="0 0 16 16" fill="none" xmlns="http://www.w3.org/2000/svg">
<g clip-path="url(#clip0_203_62)">
<rect width="16" height="16" fill="black"/>
<path d="M4.46721 9.68239C4.51576 9.69107 4.56255 9.65848 4.57124 9.60993C4.57992 9.56138 4.54733 9.51459 4.49878 9.5059L3.43969 9.31654C3.39113 9.30785 3.34434 9.34045 3.33566 9.389C3.32698 9.43755 3.35957 9.48434 3.40812 9.49302L4.46721 9.68239V9.68239ZM4.30941 10.565C4.35796 10.5737 4.40475 10.5411 4.41344 10.4925C4.42212 10.444 4.38953 10.3972 4.34098 10.3885L3.28178 10.199C3.23323 10.1903 3.18644 10.2229 3.17776 10.2715C3.16907 10.32 3.20166 10.3668 3.25022 10.3755L4.30941 10.565V10.565Z" fill="#9AAAB4"/>
<path d="M7.05388 10.3C6.68855 10.5545 6.29142 10.5514 6.03662 10.5101C5.96993 10.6547 5.81308 10.7427 5.649 10.7135L5.51183 10.6889C5.43188 10.7831 5.30648 10.8343 5.17616 10.8111L4.55839 10.7006C4.54091 10.7981 4.44777 10.8629 4.35034 10.8456C4.25287 10.8281 4.18789 10.7348 4.2053 10.6375L4.26839 10.2848L4.26838 10.2845L4.36315 9.75496L4.42629 9.40199C4.44372 9.30452 4.53686 9.23964 4.63433 9.25708C4.73181 9.27451 4.79669 9.36765 4.77925 9.46512L5.39706 9.57563C5.52737 9.59893 5.62716 9.69059 5.66946 9.80654L5.80688 9.83112C5.97138 9.86054 6.08825 9.99821 6.10006 10.1576C6.28993 10.1874 6.58436 10.19 6.84891 10.0057L7.05388 10.3Z" fill="#989898"/>
<path d="M23.9481 11.4172C24.1747 10.9086 23.6035 10.0027 22.7548 8.80208C21.9061 7.60146 17.4527 2.93963 13.7247 2.51156C12.4998 2.37114 12.1337 3.68876 11.8467 3.55058C11.3378 3.30559 10.5378 2.71215 9.35365 2.27346C8.15329 1.82939 7.47023 2.38886 6.893 3.58786C6.31577 4.78685 5.28836 7.64748 5.59037 8.72842C5.97078 10.0905 8.10445 11.122 9.1857 10.0518C9.50593 10.2798 9.71353 10.4137 9.85682 11.021C9.89292 13.7063 8.72028 17.1837 9.20475 17.417C9.69532 17.6531 11.5352 15.8691 12.3438 14.6895L17.3297 16.213C16.8175 17.4682 15.7227 20.5549 16.3293 20.8469C16.8463 21.0958 19.1337 19.2402 21.4378 15.8958C21.9826 15.1741 22.5834 14.2087 23.2462 12.9401C23.2177 13.0293 23.1822 13.1224 23.1337 13.2232L21.2404 17.156C21.1095 17.4278 21.2312 17.7571 21.5126 17.8925C21.794 18.028 22.1273 17.9178 22.2582 17.6459L24.1515 13.7132C24.5792 12.8249 24.4929 12.0289 23.9481 11.4172V11.4172Z" fill="#C1694F"/>
<path d="M5.9868 5.9546C5.9868 5.9546 6.62031 2.13229 8.1794 1.50832C9.73849 0.884358 12.1116 3.40141 12.1116 3.40141C12.1116 3.40141 12.7198 1.89458 13.7699 2.02466C14.8199 2.15474 18.6577 3.35326 21.6949 7.56515C19.7605 7.15887 18.8977 7.76868 18.1876 9.72664C17.4776 11.6846 14.8059 15.5218 12.2629 14.9709C9.71991 14.4199 8.10831 13.2129 9.18573 10.0518C10.2632 6.89071 11.6971 6.18043 10.9032 4.75916C7.90416 2.76491 5.9868 5.9546 5.9868 5.9546V5.9546Z" fill="#662113"/>
<path d="M9.1569 7.09993C9.43795 7.23524 9.77175 7.12484 9.90246 6.85334C10.0332 6.58184 9.91129 6.25205 9.63023 6.11675C9.34918 5.98144 9.01538 6.09184 8.88467 6.36334C8.75396 6.63484 8.87584 6.96463 9.1569 7.09993Z" fill="#292F33"/>
<path d="M6.71203 7.86847C6.45311 8.40627 6.43926 8.82044 5.88253 8.55242C5.3258 8.28439 5.12146 7.55263 5.29071 6.95107C5.45244 6.37557 5.83361 6.62023 6.39034 6.88826C6.94707 7.15628 6.97118 7.33017 6.71203 7.86847V7.86847Z" fill="#D99E82"/>
<path d="M10.7669 4.37268C11.783 4.52639 12.7602 3.86632 12.9161 2.94102C12.9897 2.50417 12.8303 1.45915 12.4918 1.40824C12.1534 1.35733 12.5626 3.34064 10.6012 3.00072C9.92543 2.88367 10.089 4.27038 10.7669 4.37268Z" fill="#99AAB5"/>
</g>
<defs>
<clipPath id="clip0_203_62">
<rect width="16" height="16" fill="white"/>
</clipPath>
</defs>
</svg>
