<svg width="256" height="256" viewBox="0 0 256 256" fill="none" xmlns="http://www.w3.org/2000/svg">
<g clip-path="url(#clip0_203_12)">
<rect width="256" height="256" fill="black"/>
<path d="M71.4749 154.918C72.2517 155.057 73.0004 154.536 73.1393 153.759C73.2782 152.982 72.7568 152.233 71.98 152.094L55.0345 149.065C54.2576 148.926 53.509 149.447 53.3701 150.224C53.2311 151.001 53.7526 151.749 54.5294 151.888L71.4749 154.918V154.918ZM68.9501 169.04C69.7269 169.179 70.4755 168.657 70.6145 167.881C70.7534 167.104 70.232 166.355 69.4552 166.216L52.508 163.184C51.7312 163.045 50.9826 163.567 50.8436 164.343C50.7047 165.12 51.2261 165.869 52.003 166.008L68.9501 169.04V169.04Z" fill="#9AAAB4"/>
<path d="M112.86 164.8C107.014 168.871 100.66 168.822 96.5836 168.162C95.5166 170.475 93.0069 171.884 90.3817 171.415L88.187 171.023C86.9078 172.529 84.9014 173.348 82.8162 172.977L72.932 171.21C72.6522 172.769 71.162 173.807 69.6032 173.529C68.0436 173.25 67.0039 171.758 67.2825 170.2L68.2919 164.556L68.2918 164.551L69.8082 156.079L70.8183 150.432C71.0972 148.872 72.5874 147.834 74.147 148.113C75.7067 148.392 76.7447 149.882 76.4657 151.442L86.3507 153.21C88.4356 153.583 90.0322 155.049 90.7091 156.905L92.9078 157.298C95.5398 157.769 97.4097 159.971 97.5986 162.521C100.637 162.998 105.347 163.04 109.58 160.091L112.86 164.8Z" fill="#989898"/>
<path d="M383.168 182.675C386.794 174.538 377.655 160.043 364.076 140.833C350.497 121.623 279.242 47.0341 219.594 40.185C199.995 37.9383 194.138 59.0202 189.546 56.8094C181.403 52.8894 168.604 43.3944 149.657 36.3754C130.451 29.2703 119.522 38.2218 110.287 57.4057C101.051 76.5897 84.6124 122.36 89.4446 139.655C95.5312 161.449 129.67 177.952 146.97 160.829C152.094 164.477 155.415 166.619 157.708 176.336C158.285 219.302 139.523 274.94 147.275 278.671C155.124 282.45 184.562 253.906 197.5 235.032L277.273 259.408C269.079 279.491 251.561 328.878 261.267 333.55C269.539 337.533 306.138 307.844 343.003 254.333C351.721 242.786 361.334 227.339 371.938 207.041C371.482 208.469 370.915 209.959 370.138 211.571L339.845 274.495C337.751 278.845 339.698 284.113 344.201 286.281C348.703 288.448 354.036 286.685 356.13 282.335L386.423 219.411C393.266 205.198 391.885 192.462 383.168 182.675V182.675Z" fill="#C1694F"/>
<path d="M95.7869 95.2737C95.7869 95.2737 105.923 34.1166 130.868 24.1332C155.814 14.1497 193.784 54.4225 193.784 54.4225C193.784 54.4225 203.515 30.3132 220.316 32.3945C237.116 34.4758 298.522 53.6521 347.116 121.042C316.165 114.542 302.361 124.299 291 155.626C279.639 186.954 236.893 248.349 196.205 239.534C155.517 230.719 129.731 211.407 146.97 160.829C164.208 110.251 187.151 98.8869 174.449 76.1465C126.465 44.2385 95.7869 95.2737 95.7869 95.2737V95.2737Z" fill="#662113"/>
<path d="M146.51 113.599C151.007 115.764 156.348 113.997 158.439 109.653C160.531 105.309 158.58 100.033 154.084 97.8679C149.587 95.703 144.246 97.4695 142.155 101.813C140.063 106.157 142.013 111.434 146.51 113.599Z" fill="#292F33"/>
<path d="M107.392 125.895C103.249 134.5 103.028 141.127 94.12 136.839C85.2123 132.55 81.9428 120.842 84.6509 111.217C87.2385 102.009 93.3373 105.924 102.245 110.212C111.153 114.501 111.538 117.283 107.392 125.895V125.895Z" fill="#D99E82"/>
<path d="M172.272 69.9629C188.529 72.4222 204.165 61.8611 206.658 47.0563C207.837 40.0667 205.285 23.3464 199.871 22.5319C194.456 21.7173 201.003 53.4503 169.621 48.0115C158.808 46.1387 161.426 68.326 172.272 69.9629Z" fill="#99AAB5"/>
</g>
<defs>
<clipPath id="clip0_203_12">
<rect width="256" height="256" fill="white"/>
</clipPath>
</defs>
</svg>
