<svg xmlns="http://www.w3.org/2000/svg" width="32" height="32" fill="none" viewBox="0 0 32 32"><g clip-path="url(#clip0_203_52)"><rect width="32" height="32" fill="#000"/><path fill="#9AAAB4" d="M8.93443 19.3648C9.03153 19.3821 9.12511 19.317 9.14247 19.2199C9.15984 19.1228 9.09466 19.0292 8.99756 19.0118L6.87937 18.6331C6.78227 18.6157 6.68869 18.6809 6.67132 18.778C6.65395 18.8751 6.71914 18.9687 6.81624 18.986L8.93443 19.3648V19.3648ZM8.61882 21.13C8.71593 21.1474 8.8095 21.0822 8.82687 20.9851C8.84424 20.888 8.77906 20.7944 8.68196 20.777L6.56356 20.398C6.46646 20.3806 6.37288 20.4458 6.35552 20.5429C6.33815 20.64 6.40333 20.7336 6.50043 20.751L8.61882 21.13V21.13Z"/><path fill="#989898" d="M14.1075 20.6C13.3769 21.1089 12.5826 21.1027 12.073 21.0202C11.9396 21.3094 11.6259 21.4855 11.2978 21.4269L11.0234 21.3779C10.8635 21.5662 10.6127 21.6685 10.3521 21.6222L9.11654 21.4013C9.08157 21.5961 8.8953 21.7259 8.70045 21.6911C8.50549 21.6563 8.37554 21.4697 8.41036 21.275L8.53654 20.5696L8.53652 20.5689L8.72607 19.5099L8.85233 18.804C8.8872 18.609 9.07347 18.4793 9.26843 18.5142C9.46338 18.549 9.59313 18.7353 9.55826 18.9302L10.7939 19.1513C11.0545 19.1979 11.2541 19.3812 11.3387 19.6131L11.6135 19.6622C11.9425 19.7211 12.1763 19.9964 12.1999 20.3152C12.5796 20.3747 13.1685 20.38 13.6976 20.0114L14.1075 20.6Z"/><path fill="#C1694F" d="M47.8959 22.8343C48.3491 21.8173 47.2068 20.0054 45.5094 17.6042C43.8121 15.2029 34.9051 5.87927 27.4492 5.02313C24.9993 4.74229 24.2672 7.37753 23.6931 7.10117C22.6754 6.61118 21.0754 5.4243 18.7071 4.54692C16.3063 3.65879 14.9402 4.77772 13.7857 7.17572C12.6313 9.57371 10.5765 15.295 11.1805 17.4568C11.9413 20.1811 16.2086 22.244 18.3712 20.1036C19.0116 20.5597 19.4268 20.8274 19.7134 22.042C19.7856 27.4127 17.4403 34.3674 18.4093 34.8339C19.3904 35.3063 23.0702 31.7382 24.6874 29.379L34.6591 32.426C33.6348 34.9363 31.4451 41.1097 32.6583 41.6938C33.6923 42.1916 38.2672 38.4805 42.8753 31.7916C43.965 30.3482 45.1666 28.4174 46.4922 25.8802C46.4351 26.0586 46.3643 26.2449 46.2672 26.4464L42.4805 34.3119C42.2188 34.8556 42.4622 35.5141 43.025 35.7851C43.5878 36.0561 44.2544 35.8356 44.5161 35.2919L48.3028 27.4264C49.1581 25.6498 48.9856 24.0577 47.8959 22.8343V22.8343Z"/><path fill="#662113" d="M11.9734 11.9092C11.9734 11.9092 13.2404 4.26457 16.3586 3.01665C19.4767 1.76872 24.223 6.80281 24.223 6.80281C24.223 6.80281 25.4394 3.78916 27.5395 4.04932C29.6395 4.30948 37.3152 6.70652 43.3895 15.1303C39.5207 14.3177 37.7952 15.5374 36.375 19.4533C34.9549 23.3692 29.6117 31.0436 24.5256 29.9418C19.4396 28.8399 16.2164 26.4259 18.3712 20.1036C20.5261 13.7814 23.3939 12.3609 21.8062 9.51832C15.8081 5.52981 11.9734 11.9092 11.9734 11.9092V11.9092Z"/><path fill="#292F33" d="M18.3138 14.1999C18.8759 14.4705 19.5435 14.2497 19.8049 13.7067C20.0663 13.1637 19.8226 12.5041 19.2605 12.2335C18.6984 11.9629 18.0308 12.1837 17.7693 12.7267C17.5079 13.2697 17.7517 13.9293 18.3138 14.1999Z"/><path fill="#D99E82" d="M13.4241 15.7369C12.9062 16.8125 12.8785 17.6409 11.7651 17.1048C10.6516 16.5688 10.2429 15.1053 10.5814 13.9021C10.9049 12.7511 11.6672 13.2405 12.7807 13.7765C13.8941 14.3126 13.9424 14.6603 13.4241 15.7369V15.7369Z"/><path fill="#99AAB5" d="M21.5341 8.74536C23.5662 9.05278 25.5206 7.73264 25.8324 5.88204C25.9797 5.00834 25.6608 2.9183 24.9839 2.81648C24.307 2.71467 25.1254 6.68129 21.2027 6.00143C19.8511 5.76734 20.1783 8.54075 21.5341 8.74536Z"/></g><defs><clipPath id="clip0_203_52"><rect width="32" height="32" fill="#fff"/></clipPath></defs></svg>