<svg width="512" height="512" viewBox="0 0 512 512" fill="none" xmlns="http://www.w3.org/2000/svg">
<g clip-path="url(#clip0_203_2)">
<rect width="512" height="512" fill="black"/>
<path d="M142.95 309.836C144.503 310.114 146.001 309.071 146.279 307.518C146.556 305.964 145.514 304.467 143.96 304.189L110.069 298.129C108.515 297.851 107.018 298.894 106.74 300.448C106.462 302.002 107.505 303.499 109.059 303.777L142.95 309.836V309.836ZM137.9 338.08C139.454 338.358 140.951 337.315 141.229 335.761C141.507 334.208 140.464 332.71 138.91 332.433L105.016 326.368C103.462 326.09 101.965 327.133 101.687 328.687C101.409 330.24 102.452 331.738 104.006 332.016L137.9 338.08V338.08Z" fill="#9AAAB4"/>
<path d="M225.72 329.599C214.029 337.743 201.321 337.644 193.167 336.324C191.033 340.95 186.014 343.768 180.763 342.831L176.374 342.046C173.816 345.058 169.803 346.696 165.632 345.955L145.864 342.421C145.304 345.538 142.324 347.614 139.206 347.058C136.087 346.5 134.008 343.515 134.565 340.4L136.584 329.113L136.584 329.103L139.616 312.159L141.637 300.864C142.194 297.745 145.175 295.669 148.294 296.226C151.413 296.784 153.489 299.765 152.931 302.884L172.701 306.42C176.871 307.166 180.064 310.099 181.418 313.809L185.816 314.596C191.08 315.537 194.819 319.943 195.197 325.043C201.273 325.996 210.695 326.08 219.16 320.183L225.72 329.599Z" fill="#989898"/>
<path d="M766.335 365.349C773.588 349.076 755.31 320.086 728.152 281.666C700.994 243.247 558.483 94.0683 439.188 80.3701C399.99 75.8766 388.276 118.04 379.092 113.619C362.807 105.779 337.207 86.7887 299.315 72.7508C260.903 58.5406 239.045 76.4436 220.573 114.811C202.102 153.179 169.225 244.719 178.89 279.31C191.063 322.897 259.34 355.903 293.94 321.657C304.187 328.955 310.831 333.238 315.416 352.672C316.571 438.603 279.047 549.879 294.549 557.343C310.248 564.9 369.124 507.812 395 470.063L554.547 518.816C538.159 558.981 503.123 657.756 522.534 667.101C539.079 675.066 612.277 615.688 686.006 508.665C703.442 485.572 722.668 454.679 743.877 414.083C742.964 416.937 741.83 419.918 740.277 423.143L679.69 548.991C675.502 557.69 679.396 568.226 688.401 572.561C697.407 576.897 708.071 573.37 712.259 564.67L772.846 438.823C786.531 410.397 783.771 384.924 766.335 365.349V365.349Z" fill="#C1694F"/>
<path d="M191.574 190.547C191.574 190.547 211.846 68.2332 261.737 48.2663C311.628 28.2995 387.568 108.845 387.568 108.845C387.568 108.845 407.031 60.6265 440.632 64.7891C474.232 68.9516 597.043 107.304 694.232 242.085C632.331 229.084 604.723 248.598 582.001 311.253C559.279 373.907 473.787 496.698 392.41 479.068C311.034 461.438 259.462 422.814 293.94 321.658C328.417 220.503 374.302 197.774 348.899 152.293C252.93 88.477 191.574 190.547 191.574 190.547V190.547Z" fill="#662113"/>
<path d="M293.021 227.198C302.014 231.528 312.696 227.995 316.879 219.307C321.061 210.619 317.161 200.066 308.167 195.736C299.174 191.406 288.492 194.939 284.309 203.627C280.127 212.315 284.027 222.868 293.021 227.198Z" fill="#292F33"/>
<path d="M214.784 251.791C206.499 269.001 206.055 282.254 188.24 273.677C170.425 265.101 163.886 241.684 169.302 222.434C174.477 204.018 186.675 211.847 204.49 220.424C222.305 229.001 223.077 234.565 214.784 251.791V251.791Z" fill="#D99E82"/>
<path d="M344.544 139.926C377.058 144.844 408.329 123.722 413.317 94.1126C415.674 80.1334 410.571 46.6928 399.741 45.0637C388.911 43.4347 402.005 106.901 339.242 96.023C317.617 92.2775 322.852 136.652 344.544 139.926Z" fill="#99AAB5"/>
</g>
<defs>
<clipPath id="clip0_203_2">
<rect width="512" height="512" fill="white"/>
</clipPath>
</defs>
</svg>
