<svg xmlns="http://www.w3.org/2000/svg" width="64" height="64" fill="none" viewBox="0 0 64 64"><g clip-path="url(#clip0_203_32)"><rect width="64" height="64" fill="#000"/><path fill="#9AAAB4" d="M17.8686 38.7295C18.0628 38.7643 18.25 38.6339 18.2847 38.4397C18.3194 38.2455 18.1891 38.0584 17.9949 38.0236L13.7585 37.2662C13.5643 37.2314 13.3771 37.3618 13.3424 37.556C13.3077 37.7502 13.438 37.9373 13.6322 37.9721L17.8686 38.7295V38.7295ZM17.2374 42.26C17.4316 42.2947 17.6188 42.1644 17.6535 41.9702C17.6882 41.7759 17.5579 41.5888 17.3637 41.5541L13.1269 40.796C12.9327 40.7613 12.7455 40.8916 12.7108 41.0858C12.6761 41.28 12.8064 41.4672 13.0006 41.5019L17.2374 42.26V42.26Z"/><path fill="#989898" d="M28.2148 41.1999C26.7535 42.2178 25.1649 42.2055 24.1457 42.0404C23.879 42.6187 23.2516 42.971 22.5953 42.8538L22.0466 42.7557C21.7268 43.1323 21.2252 43.337 20.7039 43.2443L18.2328 42.8026C18.1629 43.1922 17.7904 43.4517 17.4006 43.3823C17.0107 43.3125 16.7508 42.9394 16.8205 42.55L17.0728 41.1391L17.0728 41.1378L17.4519 39.0198L17.7044 37.608C17.7742 37.2181 18.1467 36.9586 18.5366 37.0283C18.9265 37.098 19.186 37.4706 19.1163 37.8605L21.5875 38.3025C22.1087 38.3957 22.5079 38.7623 22.6771 39.2262L23.2268 39.3245C23.8848 39.4422 24.3523 39.9928 24.3995 40.6304C25.159 40.7495 26.3367 40.7599 27.3949 40.0229L28.2148 41.1999Z"/><path fill="#C1694F" d="M95.792 45.6687C96.6985 43.6346 94.4138 40.0108 91.0191 35.2083C87.6243 30.4058 69.8105 11.7585 54.8986 10.0463C49.9988 9.48458 48.5346 14.7551 47.3865 14.2023C45.351 13.2224 42.151 10.8486 37.4144 9.09385C32.6129 7.31757 29.8807 9.55545 27.5717 14.3514C25.2628 19.1474 21.1532 30.5899 22.3613 34.9137C23.8829 40.3621 32.4175 44.4879 36.7426 40.2072C38.0235 41.1193 38.8539 41.6548 39.427 44.084C39.5714 54.8254 34.8809 68.7349 36.8187 69.6678C38.781 70.6125 46.1406 63.4765 49.3751 58.7579L69.3184 64.852C67.2699 69.8727 62.8904 82.2195 65.3168 83.3876C67.3849 84.3833 76.5346 76.961 85.7508 63.5831C87.9303 60.6965 90.3335 56.8348 92.9846 51.7603C92.8705 52.1172 92.7288 52.4897 92.5347 52.8928L84.9613 68.6238C84.4378 69.7112 84.9246 71.0282 86.0502 71.5702C87.1759 72.1121 88.509 71.6712 89.0325 70.5838L96.6058 54.8528C98.3165 51.2996 97.9714 48.1155 95.792 45.6687V45.6687Z"/><path fill="#662113" d="M23.9467 23.8184C23.9467 23.8184 26.4807 8.52915 32.7171 6.03329C38.9535 3.53743 48.446 13.6056 48.446 13.6056C48.446 13.6056 50.8788 7.57831 55.0789 8.09863C59.279 8.61895 74.6304 13.413 86.779 30.2606C79.0414 28.6355 75.5903 31.0747 72.7501 38.9066C69.9098 46.7384 59.2233 62.0872 49.0512 59.8835C38.8792 57.6798 32.4328 52.8517 36.7424 40.2073C41.0521 27.5628 46.7877 24.7217 43.6123 19.0366C31.6162 11.0596 23.9467 23.8184 23.9467 23.8184V23.8184Z"/><path fill="#292F33" d="M36.6276 28.3997C37.7518 28.941 39.087 28.4993 39.6098 27.4133C40.1327 26.3273 39.6451 25.0082 38.5209 24.467C37.3967 23.9258 36.0615 24.3674 35.5387 25.4534C35.0159 26.5394 35.5034 27.8585 36.6276 28.3997Z"/><path fill="#D99E82" d="M26.8479 31.4739C25.8122 33.6251 25.7568 35.2818 23.5299 34.2097C21.303 33.1376 20.4856 30.2105 21.1626 27.8043C21.8095 25.5023 23.3342 26.4809 25.5611 27.553C27.788 28.6251 27.8845 29.3207 26.8479 31.4739V31.4739Z"/><path fill="#99AAB5" d="M43.0679 17.4907C47.1322 18.1056 51.041 15.4653 51.6645 11.7641C51.9591 10.0167 51.3213 5.8366 49.9675 5.63296C48.6138 5.42933 50.2505 13.3626 42.4052 12.0029C39.702 11.5347 40.3563 17.0815 43.0679 17.4907Z"/></g><defs><clipPath id="clip0_203_32"><rect width="64" height="64" fill="#fff"/></clipPath></defs></svg>